<svg width="150" height="150" viewBox="0 0 150 150" fill="none" xmlns="http://www.w3.org/2000/svg">
<path fill-rule="evenodd" clip-rule="evenodd" d="M75 0C33.5625 0 0 33.5625 0 75C0 108.187 21.4687 136.219 51.2812 146.156C55.0312 146.813 56.4375 144.563 56.4375 142.594C56.4375 140.813 56.3438 134.906 56.3438 128.625C37.5 132.094 32.625 124.031 31.125 119.813C30.2813 117.656 26.625 111 23.4375 109.219C20.8125 107.813 17.0625 104.344 23.3437 104.25C29.25 104.156 33.4687 109.687 34.875 111.937C41.625 123.281 52.4062 120.094 56.7187 118.125C57.375 113.25 59.3438 109.969 61.5 108.094C44.8125 106.219 27.375 99.75 27.375 71.0625C27.375 62.9062 30.2813 56.1563 35.0625 50.9063C34.3125 49.0313 31.6875 41.3438 35.8125 31.0313C35.8125 31.0313 42.0937 29.0625 56.4375 38.7188C62.4375 37.0313 68.8125 36.1875 75.1875 36.1875C81.5625 36.1875 87.9375 37.0313 93.9375 38.7188C108.281 28.9688 114.562 31.0313 114.562 31.0313C118.687 41.3438 116.063 49.0313 115.313 50.9063C120.094 56.1563 123 62.8125 123 71.0625C123 99.8437 105.469 106.219 88.7812 108.094C91.5 110.438 93.8438 114.937 93.8438 121.969C93.8438 132 93.75 140.063 93.75 142.594C93.75 144.563 95.1562 146.906 98.9062 146.156C113.795 141.13 126.732 131.561 135.898 118.796C145.063 106.032 149.996 90.7143 150 75C150 33.5625 116.438 0 75 0Z" fill="black"/>
</svg>
