<svg width="152" height="31" viewBox="0 0 152 31" fill="none" xmlns="http://www.w3.org/2000/svg">
<g filter="url(#filter0_d_16_148)">
<path d="M17.01 6.78C17.01 5.7 16.86 4.81 16.56 4.11C16.26 3.39 15.83 2.86 15.27 2.52C14.73 2.16 14.08 1.99 13.32 2.01H11.88V16.08C11.88 16.62 11.87 17.14 11.85 17.64C11.83 18.14 11.8 18.52 11.76 18.78C12.1 18.74 12.53 18.72 13.05 18.72C13.59 18.7 13.96 18.69 14.16 18.69V21H5.4V19.02C5.86 19 6.24 18.94 6.54 18.84C6.86 18.74 7.1 18.51 7.26 18.15C7.44 17.79 7.53 17.21 7.53 16.41V2.04H6.15C5.01 2.06 4.11 2.45 3.45 3.21C2.79 3.97 2.46 5.16 2.46 6.78H0.48L0.63 -1.43051e-06H18.81L18.99 6.78H17.01ZM20.6245 19.05C21.1845 19.05 21.5845 18.94 21.8245 18.72C22.0645 18.5 22.2145 18.19 22.2745 17.79C22.3545 17.37 22.3945 16.9 22.3945 16.38V11.34C22.3945 10.98 22.4045 10.58 22.4245 10.14C22.4445 9.68 22.4745 9.23 22.5145 8.79C22.1945 8.81 21.8145 8.83 21.3745 8.85C20.9545 8.85 20.6345 8.86 20.4145 8.88V6.6H21.6145C22.3945 6.6 23.1045 6.5 23.7445 6.3C24.4045 6.1 24.8345 5.9 25.0345 5.7H26.5045C26.5445 5.9 26.5745 6.28 26.5945 6.84C26.6145 7.38 26.6245 7.86 26.6245 8.28C27.1645 7.62 27.6745 7.09 28.1545 6.69C28.6345 6.29 29.1045 6 29.5645 5.82C30.0445 5.62 30.5245 5.52 31.0045 5.52C31.7045 5.52 32.3145 5.72 32.8345 6.12C33.3545 6.5 33.6145 7.13 33.6145 8.01C33.6145 8.31 33.5445 8.63 33.4045 8.97C33.2645 9.29 33.0445 9.56 32.7445 9.78C32.4445 10 32.0345 10.11 31.5145 10.11C31.1145 10.11 30.7045 9.99 30.2845 9.75C29.8645 9.51 29.6245 9.05 29.5645 8.37C29.1645 8.37 28.7645 8.54 28.3645 8.88C27.9645 9.2 27.6045 9.59 27.2845 10.05C26.9845 10.49 26.7745 10.9 26.6545 11.28V16.17C26.6545 16.45 26.6445 16.85 26.6245 17.37C26.6045 17.87 26.5745 18.35 26.5345 18.81C26.8545 18.77 27.2045 18.75 27.5845 18.75C27.9845 18.73 28.2845 18.72 28.4845 18.72V21H20.6245V19.05ZM43.2321 21C43.1921 20.72 43.1621 20.49 43.1421 20.31C43.1421 20.11 43.1321 19.88 43.1121 19.62C42.4321 20.3 41.7121 20.78 40.9521 21.06C40.1921 21.34 39.4221 21.48 38.6421 21.48C37.3621 21.48 36.3621 21.1 35.6421 20.34C34.9221 19.58 34.5621 18.63 34.5621 17.49C34.5621 16.53 34.8021 15.71 35.2821 15.03C35.7821 14.35 36.4321 13.8 37.2321 13.38C38.0521 12.94 38.9521 12.61 39.9321 12.39C40.9321 12.15 41.9321 12.01 42.9321 11.97V10.41C42.9321 9.89 42.8621 9.42 42.7221 9C42.6021 8.58 42.3821 8.25 42.0621 8.01C41.7621 7.77 41.3321 7.66 40.7721 7.68C40.3921 7.7 40.0221 7.78 39.6621 7.92C39.3021 8.06 38.9921 8.26 38.7321 8.52C38.8921 8.7 38.9921 8.9 39.0321 9.12C39.0721 9.32 39.0921 9.5 39.0921 9.66C39.0921 10.06 38.9321 10.48 38.6121 10.92C38.2921 11.34 37.7821 11.54 37.0821 11.52C36.4821 11.5 36.0221 11.29 35.7021 10.89C35.3821 10.49 35.2221 10.02 35.2221 9.48C35.2221 8.68 35.5021 7.99 36.0621 7.41C36.6421 6.81 37.4121 6.35 38.3721 6.03C39.3321 5.69 40.3921 5.52 41.5521 5.52C43.3121 5.52 44.6721 5.98 45.6321 6.9C46.6121 7.8 47.1021 9.25 47.1021 11.25C47.1021 11.93 47.1021 12.51 47.1021 12.99C47.1021 13.47 47.0921 13.95 47.0721 14.43C47.0721 14.91 47.0721 15.49 47.0721 16.17C47.0721 16.45 47.0621 16.85 47.0421 17.37C47.0221 17.87 46.9921 18.35 46.9521 18.81C47.2921 18.77 47.6521 18.75 48.0321 18.75C48.4121 18.73 48.7021 18.72 48.9021 18.72V21H43.2321ZM42.9021 14.1C42.3421 14.16 41.8121 14.26 41.3121 14.4C40.8121 14.54 40.3721 14.73 39.9921 14.97C39.6321 15.21 39.3421 15.5 39.1221 15.84C38.9221 16.18 38.8221 16.56 38.8221 16.98C38.8421 17.54 39.0221 17.94 39.3621 18.18C39.7021 18.42 40.0921 18.54 40.5321 18.54C40.9921 18.54 41.4221 18.44 41.8221 18.24C42.2221 18.04 42.5821 17.78 42.9021 17.46C42.9021 17.26 42.9021 17.07 42.9021 16.89C42.9021 16.69 42.9021 16.49 42.9021 16.29C42.9021 15.93 42.9021 15.57 42.9021 15.21C42.9021 14.83 42.9021 14.46 42.9021 14.1ZM55.853 21.09L51.113 10.68C50.893 10.18 50.733 9.8 50.633 9.54C50.553 9.28 50.493 9.06 50.453 8.88C50.433 8.68 50.393 8.46 50.333 8.22L49.223 8.28V6H56.243V7.92C55.823 7.94 55.543 8.06 55.403 8.28C55.263 8.5 55.213 8.79 55.253 9.15C55.293 9.49 55.383 9.86 55.523 10.26L57.083 14.1C57.243 14.48 57.403 14.87 57.563 15.27C57.723 15.67 57.883 16.07 58.043 16.47H58.073C58.233 16.05 58.383 15.63 58.523 15.21C58.683 14.79 58.833 14.37 58.973 13.95L60.263 10.29C60.443 9.79 60.603 9.39 60.743 9.09C60.903 8.79 61.073 8.48 61.253 8.16L59.393 8.28V6H65.093V7.92C64.633 8 64.223 8.26 63.863 8.7C63.503 9.12 63.193 9.6 62.933 10.14C62.673 10.66 62.463 11.12 62.303 11.52L58.463 21.09H55.853ZM73.174 21.48C71.714 21.48 70.424 21.16 69.304 20.52C68.184 19.86 67.314 18.94 66.694 17.76C66.074 16.56 65.764 15.15 65.764 13.53C65.764 12.13 66.074 10.82 66.694 9.6C67.314 8.38 68.184 7.4 69.304 6.66C70.444 5.9 71.764 5.52 73.264 5.52C74.104 5.52 74.924 5.64 75.724 5.88C76.524 6.1 77.244 6.49 77.884 7.05C78.544 7.61 79.064 8.37 79.444 9.33C79.844 10.29 80.034 11.49 80.014 12.93L70.174 13.11C70.174 14.19 70.304 15.16 70.564 16.02C70.844 16.88 71.294 17.56 71.914 18.06C72.534 18.56 73.364 18.81 74.404 18.81C74.804 18.81 75.254 18.74 75.754 18.6C76.274 18.46 76.794 18.23 77.314 17.91C77.854 17.57 78.354 17.12 78.814 16.56L80.164 17.82C79.444 18.84 78.674 19.62 77.854 20.16C77.034 20.68 76.214 21.03 75.394 21.21C74.594 21.39 73.854 21.48 73.174 21.48ZM70.354 11.01H75.874C75.854 10.17 75.734 9.51 75.514 9.03C75.314 8.53 75.034 8.17 74.674 7.95C74.314 7.73 73.894 7.62 73.414 7.62C72.534 7.62 71.844 7.94 71.344 8.58C70.844 9.2 70.514 10.01 70.354 11.01ZM82.0078 21V19.02C82.4678 19 82.8478 18.94 83.1478 18.84C83.4678 18.74 83.7078 18.51 83.8678 18.15C84.0478 17.79 84.1378 17.21 84.1378 16.41V4.92C84.1378 4.38 84.1478 3.86 84.1678 3.36C84.2078 2.86 84.2378 2.48 84.2578 2.22C83.9378 2.24 83.5378 2.26 83.0578 2.28C82.5778 2.28 82.2278 2.29 82.0078 2.31V-1.43051e-06H90.6178V1.98C90.1778 2 89.7978 2.06 89.4778 2.16C89.1578 2.26 88.9078 2.49 88.7278 2.85C88.5678 3.19 88.4878 3.77 88.4878 4.59V16.08C88.4878 16.62 88.4778 17.13 88.4578 17.61C88.4378 18.09 88.4078 18.46 88.3678 18.72H92.3878C93.5678 18.7 94.4878 18.29 95.1478 17.49C95.8278 16.67 96.1678 15.44 96.1678 13.8H98.1778L97.9978 21H82.0078ZM107.193 21.48C105.753 21.48 104.453 21.17 103.293 20.55C102.133 19.93 101.213 19.05 100.533 17.91C99.8733 16.75 99.5433 15.39 99.5433 13.83C99.5433 12.17 99.8833 10.72 100.563 9.48C101.263 8.22 102.183 7.25 103.323 6.57C104.483 5.87 105.743 5.52 107.103 5.52C108.543 5.52 109.833 5.83 110.973 6.45C112.113 7.07 113.013 7.96 113.673 9.12C114.333 10.26 114.663 11.63 114.663 13.23C114.663 14.91 114.343 16.37 113.703 17.61C113.063 18.85 112.183 19.81 111.063 20.49C109.943 21.15 108.653 21.48 107.193 21.48ZM107.313 19.35C108.113 19.33 108.713 19.05 109.113 18.51C109.533 17.97 109.823 17.29 109.983 16.47C110.143 15.65 110.223 14.82 110.223 13.98C110.223 13.24 110.163 12.49 110.043 11.73C109.943 10.97 109.773 10.28 109.533 9.66C109.293 9.04 108.963 8.54 108.543 8.16C108.143 7.78 107.643 7.6 107.043 7.62C106.263 7.64 105.643 7.92 105.183 8.46C104.743 9 104.423 9.68 104.223 10.5C104.043 11.3 103.953 12.14 103.953 13.02C103.953 14.04 104.063 15.04 104.283 16.02C104.503 17 104.853 17.81 105.333 18.45C105.833 19.07 106.493 19.37 107.313 19.35ZM124.185 21.48C122.745 21.48 121.445 21.17 120.285 20.55C119.125 19.93 118.205 19.05 117.525 17.91C116.865 16.75 116.535 15.39 116.535 13.83C116.535 12.17 116.875 10.72 117.555 9.48C118.255 8.22 119.175 7.25 120.315 6.57C121.475 5.87 122.735 5.52 124.095 5.52C125.535 5.52 126.825 5.83 127.965 6.45C129.105 7.07 130.005 7.96 130.665 9.12C131.325 10.26 131.655 11.63 131.655 13.23C131.655 14.91 131.335 16.37 130.695 17.61C130.055 18.85 129.175 19.81 128.055 20.49C126.935 21.15 125.645 21.48 124.185 21.48ZM124.305 19.35C125.105 19.33 125.705 19.05 126.105 18.51C126.525 17.97 126.815 17.29 126.975 16.47C127.135 15.65 127.215 14.82 127.215 13.98C127.215 13.24 127.155 12.49 127.035 11.73C126.935 10.97 126.765 10.28 126.525 9.66C126.285 9.04 125.955 8.54 125.535 8.16C125.135 7.78 124.635 7.6 124.035 7.62C123.255 7.64 122.635 7.92 122.175 8.46C121.735 9 121.415 9.68 121.215 10.5C121.035 11.3 120.945 12.14 120.945 13.02C120.945 14.04 121.055 15.04 121.275 16.02C121.495 17 121.845 17.81 122.325 18.45C122.825 19.07 123.485 19.37 124.305 19.35ZM133.528 28.65V26.7C134.088 26.7 134.488 26.59 134.728 26.37C134.988 26.15 135.148 25.83 135.208 25.41C135.288 25.01 135.328 24.55 135.328 24.03V11.34C135.328 10.98 135.338 10.58 135.358 10.14C135.378 9.68 135.408 9.23 135.448 8.79C135.128 8.81 134.748 8.83 134.308 8.85C133.868 8.85 133.538 8.86 133.318 8.88V6.6C134.258 6.6 135.038 6.55 135.658 6.45C136.298 6.35 136.798 6.23 137.158 6.09C137.538 5.95 137.798 5.82 137.938 5.7H139.408C139.448 5.9 139.478 6.15 139.498 6.45C139.518 6.73 139.538 6.96 139.558 7.14C140.258 6.54 140.948 6.12 141.628 5.88C142.328 5.64 142.988 5.52 143.608 5.52C144.808 5.52 145.858 5.83 146.758 6.45C147.678 7.07 148.388 7.95 148.888 9.09C149.408 10.23 149.668 11.57 149.668 13.11C149.668 14.71 149.358 16.15 148.738 17.43C148.118 18.69 147.248 19.68 146.128 20.4C145.028 21.12 143.728 21.48 142.228 21.48C141.688 21.48 141.198 21.42 140.758 21.3C140.338 21.2 139.938 21.08 139.558 20.94V23.82C139.558 24.1 139.548 24.49 139.528 24.99C139.528 25.51 139.508 26 139.468 26.46C139.788 26.42 140.138 26.39 140.518 26.37C140.898 26.37 141.188 26.37 141.388 26.37V28.65H133.528ZM141.748 19.23C142.668 19.21 143.378 18.94 143.878 18.42C144.398 17.88 144.758 17.18 144.958 16.32C145.158 15.46 145.258 14.54 145.258 13.56C145.258 12.64 145.148 11.77 144.928 10.95C144.708 10.13 144.358 9.47 143.878 8.97C143.398 8.45 142.768 8.2 141.988 8.22C141.488 8.24 141.028 8.37 140.608 8.61C140.188 8.83 139.838 9.14 139.558 9.54C139.558 10.16 139.558 10.78 139.558 11.4C139.558 12 139.558 12.6 139.558 13.2C139.558 13.8 139.558 14.41 139.558 15.03C139.558 15.63 139.558 16.24 139.558 16.86C139.558 17.46 139.558 18.07 139.558 18.69C139.778 18.83 140.088 18.96 140.488 19.08C140.888 19.2 141.308 19.25 141.748 19.23Z" fill="white"/>
</g>
<defs>
<filter id="filter0_d_16_148" x="0.47998" y="0" width="151.188" height="30.65" filterUnits="userSpaceOnUse" color-interpolation-filters="sRGB">
<feFlood flood-opacity="0" result="BackgroundImageFix"/>
<feColorMatrix in="SourceAlpha" type="matrix" values="0 0 0 0 0 0 0 0 0 0 0 0 0 0 0 0 0 0 127 0" result="hardAlpha"/>
<feOffset dx="2" dy="2"/>
<feComposite in2="hardAlpha" operator="out"/>
<feColorMatrix type="matrix" values="0 0 0 0 0.745833 0 0 0 0 0.17092 0 0 0 0 0.124306 0 0 0 1 0"/>
<feBlend mode="normal" in2="BackgroundImageFix" result="effect1_dropShadow_16_148"/>
<feBlend mode="normal" in="SourceGraphic" in2="effect1_dropShadow_16_148" result="shape"/>
</filter>
</defs>
</svg>
